Coordinates
version=1
nRows=30
nColumns=30
inDegrees=yes

Units are S.I. units (second, meters, Newtons, ...)
Angles are in degrees.

endheader
time	floatyaw	floatroll	floatpitch	floatx	floaty	floatz	pro_sup_l	deviation_l	flexion_l	cmc_flexion_l	cmc_abduction_l	mp_flexion_l	ip_flexion_l	2mcp_flexion_l	2mcp_abduction_l	2pm_flexion_l	2md_flexion_l	3mcp_flexion_l	3mcp_abduction_l	3pm_flexion_l	3md_flexion_l	4mcp_flexion_l	4mcp_abduction_l	4pm_flexion_l	4md_flexion_l	5mcp_flexion_l	5mcp_abduction_l	5pm_flexion_l	5md_flexion_l
-0.495000	-160.147433	-5.066637	-73.570646	0.077956	-0.180229	-0.017124	99.807736	3.389967	1.136542	14.572032	8.654143	-25.640159	-41.526544	29.317720	6.242499	42.220057	28.657296	22.687217	3.972839	43.646925	29.003611	11.763697	-4.249036	51.733847	35.384196	-0.267059	-7.228386	61.243742	41.712083
-0.485000	-160.147433	-5.066637	-73.570646	0.077769	-0.180126	-0.017362	99.823551	3.397273	1.208611	14.514251	8.667808	-25.668214	-41.567568	29.278177	6.240846	42.292992	28.711348	22.652741	3.981226	43.725140	29.069197	11.738017	-4.245253	51.819288	35.459850	-0.251373	-7.250395	61.276866	41.756983
-0.475000	-160.147433	-5.066637	-73.570646	0.077567	-0.179989	-0.017627	99.853383	3.410534	1.255209	14.443042	8.705391	-25.689021	-41.592066	29.264467	6.257490	42.396181	28.787053	22.627485	3.994583	43.846525	29.167274	11.712900	-4.242300	51.946746	35.561301	-0.242139	-7.281794	61.387566	41.838484
-0.465000	-160.147433	-5.066637	-73.570646	0.077338	-0.179811	-0.017927	99.895046	3.426550	1.278885	14.370901	8.757986	-25.707783	-41.600351	29.283151	6.292888	42.514851	28.877403	22.622548	4.009273	43.991233	29.283105	11.704319	-4.241039	52.094102	35.667795	-0.232460	-7.316820	61.562350	41.940782
-0.455000	-160.147433	-5.066637	-73.570646	0.077076	-0.179582	-0.018265	99.946328	3.445735	1.290030	14.308140	8.810716	-25.730683	-41.601038	29.331083	6.341510	42.626318	28.974771	22.642593	4.021628	44.129896	29.396094	11.722328	-4.242471	52.233292	35.757679	-0.213514	-7.347959	61.762262	42.038855
-0.445000	-160.147433	-5.066637	-73.570646	0.076780	-0.179294	-0.018640	100.007724	3.472991	1.302439	14.260407	8.848712	-25.760225	-41.604852	29.397422	6.393748	42.707022	29.074307	22.684392	4.029300	44.232580	29.486550	11.768250	-4.247505	52.337967	35.816036	-0.177338	-7.369476	61.936098	42.107725
-0.435000	-160.147433	-5.066637	-73.570646	0.076449	-0.178940	-0.019050	100.082218	3.515745	1.327434	14.228127	8.861530	-25.793813	-41.618906	29.469653	6.439782	42.741135	29.174740	22.739125	4.031825	44.279243	29.542238	11.837058	-4.256487	52.389618	35.838670	-0.118202	-7.380267	62.039696	42.131832
-0.425000	-160.147433	-5.066637	-73.570646	0.076080	-0.178518	-0.019496	100.171820	3.580054	1.369090	14.207216	8.845969	-25.825319	-41.643443	29.539204	6.473250	42.727809	29.276521	22.796915	4.030184	44.267963	29.562176	11.922786	-4.268728	52.380883	35.831224	-0.032266	-7.384324	62.051996	42.110066
-0.415000	-160.147433	-5.066637	-73.570646	0.075664	-0.178030	-0.019984	100.274058	3.667265	1.422740	14.190325	8.807625	-25.848089	-41.672019	29.603282	6.492828	42.683359	29.378923	22.851596	4.025765	44.216536	29.556051	12.023571	-4.282417	52.315764	35.804888	0.083100	-7.388669	61.981331	42.054841
-0.405000	-160.147433	-5.066637	-73.570646	0.075188	-0.177479	-0.020529	100.382393	3.773655	1.477647	14.168262	8.759989	-25.857906	-41.694894	29.663143	6.501242	42.635870	29.478197	22.903968	4.019374	44.155422	29.539478	12.144130	-4.295079	52.206936	35.771267	0.229186	-7.400098	61.860616	41.986449
-0.395000	-160.147433	-5.066637	-73.570646	0.074638	-0.176873	-0.021149	100.491069	3.893486	1.522955	14.131875	8.719435	-25.855075	-41.704167	29.721322	6.502862	42.613673	29.568012	22.962163	4.010834	44.114883	29.527387	12.295290	-4.304454	52.070605	35.738364	0.405083	-7.422401	61.734510	41.925458
-0.385000	-160.147433	-5.066637	-73.570646	0.074004	-0.176211	-0.021868	100.600457	4.023549	1.554468	14.074986	8.696844	-25.845147	-41.698484	29.779722	6.501566	42.633723	29.642068	23.038496	3.999286	44.112860	29.528563	12.491258	-4.309465	51.920228	35.708342	0.606777	-7.455112	61.643820	41.885971
-0.375000	-160.147433	-5.066637	-73.570646	0.073276	-0.175483	-0.022711	100.717800	4.166503	1.579062	13.998002	8.690523	-25.837720	-41.684904	29.838416	6.500027	42.696943	29.697596	23.143956	3.984084	44.149549	29.543467	12.745415	-4.310852	51.761755	35.677164	0.827134	-7.494043	61.612368	41.871583
-0.365000	-160.147433	-5.066637	-73.570646	0.072439	-0.174668	-0.023702	100.851470	4.331456	1.614046	13.909945	8.686211	-25.843066	-41.676362	29.894353	6.500369	42.793134	29.737924	23.283495	3.965890	44.210485	29.565634	13.065554	-4.311007	51.593487	35.636641	1.057705	-7.533432	61.640279	41.874921
-0.355000	-160.147433	-5.066637	-73.570646	0.071475	-0.173743	-0.024863	101.001339	4.532123	1.680533	13.826209	8.665897	-25.867520	-41.685337	29.940501	6.505186	42.911334	29.772594	23.455491	3.947481	44.275569	29.585568	13.449840	-4.312845	51.411842	35.579343	1.292668	-7.569195	61.706194	41.881274
-0.345000	-160.147433	-5.066637	-73.570646	0.070355	-0.172684	-0.026209	101.150513	4.784074	1.792829	13.761719	8.620380	-25.909730	-41.716822	29.967354	6.517747	43.048106	29.814556	23.656541	3.933699	44.329216	29.595311	13.885400	-4.318028	51.220634	35.505454	1.533378	-7.601934	61.778844	41.876165
-0.335000	-160.147433	-5.066637	-73.570646	0.069045	-0.171478	-0.027752	101.263573	5.102732	1.948653	13.722679	8.556839	-25.959929	-41.764465	29.967767	6.541005	43.208372	29.875382	23.888662	3.930261	44.367203	29.592081	14.351336	-4.325537	51.038118	35.428421	1.790661	-7.637633	61.833959	41.854549
-0.325000	-160.147433	-5.066637	-73.570646	0.067501	-0.170118	-0.029503	101.293555	5.502731	2.125685	13.701153	8.495320	-26.003280	-41.812270	29.942952	6.576117	43.398954	29.960633	24.163128	3.941709	44.398020	29.580090	14.826606	-4.331572	50.895485	35.375138	2.082894	-7.684921	61.867487	41.826756
-0.315000	-160.147433	-5.066637	-73.570646	0.065675	-0.168599	-0.031469	101.195076	5.997877	2.287057	13.674721	8.454960	-26.026721	-41.841316	29.905596	6.621685	43.619864	30.067799	24.496482	3.969344	44.439078	29.570308	15.301026	-4.330964	50.823924	35.377971	2.430835	-7.750233	61.895940	41.816456
-0.305000	-160.147433	-5.066637	-73.570646	0.063517	-0.166910	-0.033658	100.937242	6.600129	2.393206	13.610928	8.437338	-26.026773	-41.838404	29.877800	6.674451	43.859463	30.188167	24.900123	4.010186	44.509383	29.578000	15.785526	-4.319363	50.833864	35.460257	2.852566	-7.834005	61.942146	41.850476
-0.295000	-160.147433	-5.066637	-73.570646	0.060986	-0.165031	-0.036072	100.510461	7.316649	2.413605	13.475187	8.417738	-26.014124	-41.802550	29.885120	6.731256	44.096434	30.311804	25.370684	4.057580	44.620627	29.617957	16.316387	-4.295040	50.896652	35.622108	3.361739	-7.930476	62.014982	41.946057
-0.285000	-160.147433	-5.066637	-73.570646	0.058047	-0.162935	-0.038708	99.925488	8.145626	2.332304	13.240253	8.354155	-26.010974	-41.746072	29.949618	6.791307	44.306861	30.433063	25.888622	4.103191	44.769506	29.698679	16.948719	-4.259470	50.941316	35.835731	3.969704	-8.031247	62.096075	42.103301
-0.275000	-160.147433	-5.066637	-73.570646	0.054684	-0.160600	-0.041552	99.206972	9.072776	2.145682	12.894712	8.216825	-26.040112	-41.689496	30.083592	6.857408	44.472193	30.553929	26.426163	4.139446	44.935272	29.818567	17.738581	-4.216711	50.873317	36.056001	4.688779	-8.130241	62.141537	42.307166
-0.265000	-160.147433	-5.066637	-73.570646	0.050891	-0.158017	-0.044585	98.384839	10.070185	1.856427	12.447959	8.027305	-26.109963	-41.653013	30.283853	6.934955	44.584521	30.683842	26.957906	4.161390	45.085678	29.967118	18.719745	-4.172311	50.609698	36.242772	5.531663	-8.227100	62.097426	42.537209
-0.255000	-160.147433	-5.066637	-73.570646	0.046668	-0.155201	-0.047781	97.486323	11.098109	1.470380	11.930724	7.881841	-26.203933	-41.649505	30.526528	7.028512	44.647788	30.836113	27.464860	4.167553	45.190607	30.131156	19.885199	-4.132325	50.114085	36.382330	6.502834	-8.327654	61.921976	42.779140
-0.245000	-160.147433	-5.066637	-73.570646	0.042021	-0.152191	-0.051111	96.531304	12.109888	0.999858	11.392116	7.933261	-26.280848	-41.681640	30.765342	7.137593	44.675218	31.022058	27.928785	4.159876	45.237660	30.302292	21.181400	-4.102162	49.414688	36.494239	7.583408	-8.442390	61.607420	43.032207
-0.235000	-160.147433	-5.066637	-73.570646	0.036951	-0.149048	-0.054550	95.533230	13.059994	0.470135	10.894854	8.328747	-26.286427	-41.739995	30.938552	7.254444	44.684220	31.245305	28.323887	4.142887	45.241018	30.480596	22.517678	-4.084815	48.598062	36.619297	8.719469	-8.584075	61.194203	43.309359
-0.225000	-160.147433	-5.066637	-73.570646	0.031463	-0.145854	-0.058077	94.505157	13.913877	-0.078628	10.509315	9.135955	-26.169979	-41.798719	30.985821	7.365560	44.691605	31.500227	28.617044	4.122241	45.236950	30.672146	23.787933	-4.079188	47.782971	36.797364	9.827320	-8.763792	60.768134	43.629960
-0.215000	-160.147433	-5.066637	-73.570646	0.025576	-0.142709	-0.061676	93.466191	14.655579	-0.598298	10.305176	10.306185	-25.900749	-41.813122	30.866685	7.455536	44.713118	31.777317	28.779792	4.102818	45.267175	30.882819	24.897708	-4.080264	47.085570	37.049433	10.820189	-8.983608	60.433235	44.006374
-0.205000	-160.147433	-5.066637	-73.570646	0.019327	-0.139725	-0.065334	92.442266	15.287889	-1.044426	10.338749	11.700174	-25.481549	-41.730513	30.566802	7.509741	44.768560	32.073190	28.802494	4.086670	45.359838	31.113426	25.786845	-4.081966	46.587959	37.372253	11.644078	-9.226825	60.265506	44.427718
